<svg xmlns="http://www.w3.org/2000/svg" viewBox="0 0 17.74 15.96"><defs><style>.cls-1{fill:none}.cls-2{fill:#fff}</style></defs><title>SearchWhiteAsset 6</title><g id="Layer_2" data-name="Layer 2"><g id="Layer_1-2" data-name="Layer 1"><path class="cls-1" d="M1.41 6.68A4.79 4.79 0 0 0 9.9 9.19a4.76 4.76 0 0 0 1-3.51c0-.1 0-.2-.06-.29a4.83 4.83 0 0 0-.12-.59 4.78 4.78 0 0 0-9.31 1.8v.08z"/><path class="cls-2" d="M17.56 13.26l-3.78-3.06c-.26-.21-.69-.08-1.09.28l-1.15-.93a.72.72 0 0 0-.15-.08A6.18 6.18 0 1 0 2.29 11a6.19 6.19 0 0 0 8.19-.37.74.74 0 0 0 .1.12l1.14.93a1.75 1.75 0 0 0-.2.45.62.62 0 0 0 .15.68l3.78 3.06a.49.49 0 0 0 .32.11 1.49 1.49 0 0 0 1-.64l.51-.63a1.62 1.62 0 0 0 .42-1.07.52.52 0 0 0-.14-.38zM2.45 3.18a4.79 4.79 0 0 1 8.3 1.61 4.83 4.83 0 0 1 .12.59c0 .1 0 .19.06.29A4.79 4.79 0 0 1 3.16 9.9a4.76 4.76 0 0 1-1.75-3.22V6.6a4.68 4.68 0 0 1 1-3.42z"/></g></g></svg>