<svg width="16" height="16" viewBox="0 0 16 16" fill="none" xmlns="http://www.w3.org/2000/svg"><path fill-rule="evenodd" clip-rule="evenodd" d="M10.148 7.407H6.593v1.186h3.555V7.407zm-.339 3.556H3.037V9.778h6.42c.11.383.229.78.352 1.185zm.366 1.185h-7.73c-.32 0-.593-.213-.593-.462V4.314c0-.249.272-.462.592-.462h8.29c.32 0 .593.213.593.462V8h.006v1.936l.538.166.647.2V4.314c0-.907-.805-1.647-1.777-1.647H2.444c-.971 0-1.777.746-1.777 1.647v7.372c0 .907.806 1.647 1.777 1.647h8.1l-.302-.97-.067-.215zM5.407 8.593h-2.37V5.037h2.37v3.556zm4.741-2.37H6.593V5.036h3.555v1.185z" fill="#5F6368"/><path d="M10 10c.36 1.315.912 2.927 1.273 4.242l.526-1.59 2.02 2.015.848-.849-1.994-1.994 1.57-.551c-1.316-.36-2.928-.891-4.243-1.273z" fill="#5F6368"/></svg>