<svg width="16" height="16" fill="none" xmlns="http://www.w3.org/2000/svg"><path d="M13.98 4.84668c.26-.26.26-.68 0-.94l-1.8867-1.88667c-.26-.26-.68-.26-.94 0L8.16 5.01335 5.56667 2.42001c-.52-.52-1.36667-.52-1.88667 0L2.41333 3.68668c-.52.52-.52 1.36667 0 1.88667l2.59334 2.59333L2 11.1733V14h2.82667L7.84 10.9867l2.5933 2.5933c.6334.6333 1.4867.4 1.8867 0l1.2667-1.2667c.52-.52.52-1.3666 0-1.8866l-2.5934-2.59335L13.98 4.84668zm-10.62-.22l1.26-1.26667.84667.84667-.78667.79333.94.94.79333-.79333.8.8-1.26666 1.26667L3.36 4.62668zm7.4867 4.96l-.7934.79332.94.94.7934-.7933.8466.8466-1.2666 1.2667-2.59337-2.5933L10.04 8.78001l.8067.80667zM4.27333 12.6667h-.94v-.94L9.74 5.32001l.8667.86667.0733.07333-6.40667 6.40669zM10.68 4.37335l.94-.94.94.94-.94.94-.94-.94z" fill="#5F6368"/></svg>